<svg width="61" height="40" viewBox="0 0 61 40" fill="none" xmlns="http://www.w3.org/2000/svg">
<g clip-path="url(#clip0)">
<path d="M41.3823 0C37.3594 0 33.6158 1.24288 30.5 3.37054C27.3837 1.24288 23.6406 0 19.6177 0C8.80058 0 0 8.97986 0 20.0176C0 31.0553 8.80058 40.0351 19.6177 40.0351C23.6406 40.0351 27.3842 38.7923 30.5 36.6646C33.6163 38.7923 37.3594 40.0351 41.3823 40.0351C52.1994 40.0351 61 31.0553 61 20.0176C61 8.97986 52.1994 0 41.3823 0V0ZM19.6177 36.3877C10.7715 36.3877 3.57422 29.044 3.57422 20.0176C3.57422 10.9912 10.7715 3.64742 19.6177 3.64742C22.5129 3.64742 25.2308 4.43389 27.5783 5.80832C23.9901 9.43816 21.7646 14.4671 21.7646 20.0176C21.7646 25.568 23.9901 30.597 27.5783 34.2263C25.2308 35.6008 22.5129 36.3877 19.6177 36.3877V36.3877ZM35.6612 20.0176C35.6612 24.7625 33.6717 29.0416 30.5 32.0341C29.3775 30.9755 28.4034 29.7554 27.6132 28.4104H29.6749C30.662 28.4104 31.462 27.594 31.462 26.5867C31.462 25.5794 30.662 24.763 29.6749 24.763H26.0271C25.8065 24.0212 25.6357 23.258 25.5194 22.4758H32.5347C33.5213 22.4758 34.3218 21.6594 34.3218 20.6521C34.3218 19.6448 33.5213 18.8284 32.5347 18.8284H25.3811C25.4361 18.05 25.5454 17.2863 25.7041 16.5411H29.6749C30.662 16.5411 31.462 15.7247 31.462 14.7174C31.462 13.7106 30.662 12.8937 29.6749 12.8937H26.9393C27.8203 11.0415 29.034 9.38402 30.5 8.00057C33.6717 10.9935 35.6612 15.2726 35.6612 20.0176V20.0176ZM41.3823 36.3877C38.4871 36.3877 35.7692 35.6008 33.4217 34.2263C37.0099 30.597 39.2354 25.568 39.2354 20.0176C39.2354 14.4671 37.0099 9.43816 33.4217 5.80832C35.7692 4.43389 38.4871 3.64742 41.3823 3.64742C50.2285 3.64742 57.4258 10.9912 57.4258 20.0176C57.4258 29.044 50.2285 36.3877 41.3823 36.3877V36.3877Z" fill="white"/>
</g>
<defs>
<clipPath id="clip0">
<rect width="61" height="40" fill="white"/>
</clipPath>
</defs>
</svg>
