<svg width="77" height="23" viewBox="0 0 77 23" fill="none" xmlns="http://www.w3.org/2000/svg">
<g clip-path="url(#clip0)">
<path d="M30.7246 0.278412L26.8248 23.104H33.0618L36.9648 0.278412H30.7246Z" fill="white"/>
<path d="M21.5953 0.304025L15.4866 15.8704L14.8354 13.52C13.6306 10.688 10.2105 6.62082 6.19531 4.05762L11.781 23.0928L18.3806 23.0816L28.2029 0.299225L21.5953 0.304025Z" fill="white"/>
<path d="M12.4676 1.93759C12.105 0.547192 11.0543 0.132791 9.75012 0.0831909H0.0802083L0 0.537592C7.52515 2.35839 12.5045 6.74559 14.5706 12.0208L12.4676 1.93759Z" fill="white"/>
<path d="M49.6056 4.65441C51.6461 4.62241 53.1252 5.06721 54.2737 5.52801L54.8368 5.79201L55.6806 0.844812C54.4454 0.382412 52.5092 -0.113586 50.0933 -0.113586C43.9301 -0.113586 39.586 2.98241 39.5523 7.41921C39.5122 10.6976 42.6467 12.528 45.0145 13.6208C47.4448 14.7408 48.2597 15.4528 48.2485 16.4528C48.2292 17.9808 46.3107 18.6816 44.5188 18.6816C42.0211 18.6816 40.6945 18.3376 38.6459 17.4864L37.8423 17.1216L36.9648 22.2304C38.4246 22.8688 41.118 23.4176 43.914 23.4464C50.4703 23.4464 54.7309 20.3872 54.7758 15.6464C54.8031 13.0528 53.1396 11.0736 49.535 9.44961C47.3534 8.39041 46.0187 7.68641 46.0315 6.61761C46.0315 5.66881 47.1641 4.65441 49.6056 4.65441Z" fill="white"/>
<path d="M71.6871 0.304016H66.8681C65.3715 0.304016 64.2582 0.710416 63.6005 2.19842L54.3396 23.1168H60.8894C60.8894 23.1168 61.9578 20.304 62.2 19.688C62.9171 19.688 69.2808 19.6976 70.1872 19.6976C70.3732 20.4944 70.9475 23.1168 70.9475 23.1168H76.7338L71.6871 0.304016ZM63.9951 15.016C64.5084 13.7056 66.4799 8.63682 66.4799 8.63682C66.4463 8.69922 66.9885 7.31681 67.3109 6.45761L67.7312 8.42562C67.7312 8.42562 68.9263 13.8752 69.1765 15.016H63.9951Z" fill="white"/>
</g>
<defs>
<clipPath id="clip0">
<rect width="77" height="23" fill="white"/>
</clipPath>
</defs>
</svg>
